<svg width="27" height="27" viewBox="0 0 27 27" fill="none" xmlns="http://www.w3.org/2000/svg">
<g id="clarity:shopping-cart-solid">
<path id="Vector" d="M10.125 24C11.1605 24 12 23.1605 12 22.125C12 21.0895 11.1605 20.25 10.125 20.25C9.08947 20.25 8.25 21.0895 8.25 22.125C8.25 23.1605 9.08947 24 10.125 24Z" fill="#006DAB"/>
<path id="Vector_2" d="M19.875 24C20.9105 24 21.75 23.1605 21.75 22.125C21.75 21.0895 20.9105 20.25 19.875 20.25C18.8395 20.25 18 21.0895 18 22.125C18 23.1605 18.8395 24 19.875 24Z" fill="#006DAB"/>
<path id="Vector_3" d="M24.825 4.7924C24.7551 4.70164 24.6654 4.62808 24.5627 4.57738C24.46 4.52668 24.347 4.50017 24.2325 4.4999H6.90749L6.56999 3.4274C6.53292 3.31224 6.46854 3.20776 6.38234 3.12287C6.29615 3.03799 6.1907 2.97521 6.07499 2.9399L2.99999 1.9949C2.90544 1.96584 2.80609 1.9557 2.70762 1.96504C2.60914 1.97438 2.51347 2.00302 2.42607 2.04933C2.24955 2.14287 2.11742 2.30269 2.05874 2.49365C2.00006 2.6846 2.01964 2.89105 2.11318 3.06757C2.20671 3.24409 2.36654 3.37622 2.55749 3.4349L5.24999 4.2599L8.68499 15.1124L7.46249 16.1174L7.36499 16.2149C7.06266 16.565 6.89138 17.0092 6.88043 17.4716C6.86949 17.9341 7.01957 18.3859 7.30499 18.7499C7.50941 18.9985 7.76917 19.1958 8.06349 19.326C8.35782 19.4563 8.67853 19.5158 8.99999 19.4999H21.5175C21.7164 19.4999 21.9072 19.4209 22.0478 19.2802C22.1885 19.1396 22.2675 18.9488 22.2675 18.7499C22.2675 18.551 22.1885 18.3602 22.0478 18.2196C21.9072 18.0789 21.7164 17.9999 21.5175 17.9999H8.87999C8.79362 17.9969 8.70948 17.9718 8.63568 17.9268C8.56189 17.8818 8.50093 17.8186 8.45871 17.7432C8.41649 17.6678 8.39442 17.5828 8.39465 17.4964C8.39487 17.41 8.41738 17.3251 8.45999 17.2499L10.2675 15.7499H21.84C22.0113 15.7549 22.1792 15.701 22.3156 15.5973C22.4521 15.4936 22.5489 15.3463 22.59 15.1799L24.99 5.4299C25.0128 5.31809 25.0098 5.20254 24.9812 5.09207C24.9526 4.9816 24.8992 4.8791 24.825 4.7924Z" fill="#006DAB"/>
</g>
</svg>
