<svg width="26" height="26" viewBox="0 0 26 26" fill="none" xmlns="http://www.w3.org/2000/svg">
<g id="cib:youtube" clip-path="url(#clip0_578_448)">
<path id="Vector" d="M24.8946 6.5725C24.7469 6.04465 24.4655 5.56387 24.0775 5.17671C23.6895 4.78955 23.2081 4.50913 22.6799 4.3626C20.6973 3.83258 12.727 3.83258 12.727 3.83258C12.727 3.83258 4.77183 3.81986 2.76854 4.3626C2.24121 4.50977 1.76077 4.79048 1.37364 5.17761C0.986516 5.56473 0.705803 6.04518 0.558635 6.5725C0.182133 8.6022 -0.0032998 10.6627 0.00476897 12.727C0.00109526 14.7814 0.186499 16.8317 0.558635 18.8521C0.706279 19.3797 0.987075 19.8605 1.37407 20.2484C1.76106 20.6362 2.24125 20.918 2.76854 21.0668C4.75117 21.5968 12.727 21.5968 12.727 21.5968C12.727 21.5968 20.6774 21.5968 22.6799 21.0668C23.208 20.9186 23.6892 20.6371 24.077 20.2493C24.4649 19.8614 24.7464 19.3803 24.8946 18.8521C25.2593 16.8329 25.4373 14.7796 25.4246 12.727C25.4373 10.6609 25.2633 8.60441 24.8946 6.5725ZM10.181 16.531V8.90637L16.8154 12.727L10.181 16.531Z" fill="white"/>
</g>
<defs>
<clipPath id="clip0_578_448">
<rect width="25.4286" height="25.4286" fill="white"/>
</clipPath>
</defs>
</svg>
